<svg xmlns="http://www.w3.org/2000/svg" viewBox="0 0 1200 800" width="1200" height="800">
<defs>
<linearGradient id="sky" x1="0" y1="0" x2="0" y2="1"><stop offset="0" stop-color="#7cc3ff"/><stop offset=".55" stop-color="#d4ecff"/><stop offset="1" stop-color="#ffe7da"/></linearGradient>
<radialGradient id="sun" cx=".18" cy=".1" r=".6"><stop offset="0" stop-color="#fffbe0"/><stop offset="1" stop-color="#fffbe000"/></radialGradient>
<linearGradient id="grass" x1="0" y1="0" x2="0" y2="1"><stop offset="0" stop-color="#9be27f"/><stop offset="1" stop-color="#4db36a"/></linearGradient>
<linearGradient id="hair" x1="0" y1="0" x2="0" y2="1"><stop offset="0" stop-color="#6a3f64"/><stop offset=".45" stop-color="#3a2547"/><stop offset="1" stop-color="#241631"/></linearGradient>
<linearGradient id="skin" x1="0" y1="0" x2="1" y2="1"><stop offset="0" stop-color="#fff0e6"/><stop offset="1" stop-color="#f8c9b0"/></linearGradient>
<radialGradient id="iris" cx=".5" cy=".25" r=".9"><stop offset="0" stop-color="#1b3a66"/><stop offset=".55" stop-color="#2f8fc4"/><stop offset="1" stop-color="#8ff0e0"/></radialGradient>
<linearGradient id="pink" x1="0" y1="0" x2="1" y2="1"><stop offset="0" stop-color="#ffb3cc"/><stop offset="1" stop-color="#ff6f9c"/></linearGradient>
<linearGradient id="mint" x1="0" y1="0" x2="1" y2="1"><stop offset="0" stop-color="#c9fbe7"/><stop offset="1" stop-color="#6fd6b0"/></linearGradient>
<linearGradient id="cone" x1="0" y1="0" x2="1" y2="0"><stop offset="0" stop-color="#f3bd72"/><stop offset="1" stop-color="#cf8a3c"/></linearGradient>
<pattern id="waffle" width="16" height="16" patternUnits="userSpaceOnUse" patternTransform="rotate(45)"><path d="M0 0H16M0 0V16" stroke="#a8631f" stroke-width="2" opacity=".55"/></pattern>
<linearGradient id="haze" x1="0" y1="0" x2="1" y2="1"><stop offset="0" stop-color="#fff" stop-opacity=".35"/><stop offset=".5" stop-color="#fff" stop-opacity="0"/></linearGradient>
<clipPath id="coneClip"><path d="M698 268 L772 268 L735 432Z"/></clipPath>
<filter id="blur"><feGaussianBlur stdDeviation="3.5"/></filter>
</defs>
<rect width="1200" height="800" fill="url(#sky)"/><rect width="1200" height="800" fill="url(#sun)"/>
<g filter="url(#blur)">
<path d="M0 470 Q300 420 620 465 T1200 450 V800H0Z" fill="#b9ec9e"/>
<rect y="520" width="1200" height="300" fill="url(#grass)"/>
<path d="M-60 800 Q480 600 1260 680 V800Z" fill="#f1dfc0" opacity=".85"/>
<path d="M70 503.0 Q61.6 356.0 80.5 230 L105.7 230 Q101.5 377.0 116.2 503.0Z" fill="#6b4a4f"/><circle cx="178" cy="341" r="51" fill="#ffc9da" opacity="0.77"/><circle cx="35" cy="219" r="41" fill="#ffb7cf" opacity="0.95"/><circle cx="108" cy="222" r="46" fill="#ffc9da" opacity="0.83"/><circle cx="94" cy="282" r="52" fill="#ffd9e5" opacity="0.86"/><circle cx="-88" cy="185" r="62" fill="#ff9fbf" opacity="0.87"/><circle cx="172" cy="214" r="57" fill="#ffc9da" opacity="0.80"/><circle cx="74" cy="235" r="34" fill="#ffb7cf" opacity="0.86"/><circle cx="160" cy="177" r="31" fill="#ffd9e5" opacity="0.92"/><circle cx="56" cy="178" r="38" fill="#ff9fbf" opacity="0.71"/><circle cx="119" cy="262" r="30" fill="#ff9fbf" opacity="0.94"/><circle cx="202" cy="207" r="38" fill="#ff9fbf" opacity="0.75"/><circle cx="124" cy="267" r="32" fill="#ff9fbf" opacity="0.83"/><circle cx="123" cy="285" r="30" fill="#ff9fbf" opacity="0.90"/><circle cx="164" cy="280" r="43" fill="#ff9fbf" opacity="0.78"/><circle cx="104" cy="296" r="47" fill="#ffc9da" opacity="0.86"/><circle cx="52" cy="103" r="42" fill="#ff9fbf" opacity="0.88"/><circle cx="18" cy="221" r="50" fill="#ffc9da" opacity="0.71"/><circle cx="187" cy="115" r="50" fill="#ffc9da" opacity="0.93"/><circle cx="93" cy="145" r="57" fill="#ffb7cf" opacity="0.91"/><circle cx="-72" cy="158" r="52" fill="#ffc9da" opacity="0.72"/><circle cx="214" cy="241" r="62" fill="#ffd9e5" opacity="0.91"/><circle cx="-26" cy="190" r="50" fill="#ffc9da" opacity="0.82"/><circle cx="251" cy="222" r="55" fill="#ffb7cf" opacity="0.86"/><circle cx="224" cy="258" r="38" fill="#ffb7cf" opacity="0.91"/><circle cx="105" cy="316" r="37" fill="#ffd9e5" opacity="0.82"/><circle cx="16" cy="264" r="52" fill="#ffb7cf" opacity="0.85"/><path d="M1010 510.0 Q1002.0 370.0 1020.0 250 L1044.0 250 Q1040.0 390.0 1054.0 510.0Z" fill="#6b4a4f"/><circle cx="1009" cy="223" r="33" fill="#ff9fbf" opacity="0.86"/><circle cx="988" cy="168" r="32" fill="#ffd9e5" opacity="0.72"/><circle cx="1015" cy="322" r="50" fill="#ffd9e5" opacity="0.77"/><circle cx="935" cy="234" r="43" fill="#ffb7cf" opacity="0.95"/><circle cx="960" cy="226" r="31" fill="#ffd9e5" opacity="0.70"/><circle cx="878" cy="266" r="59" fill="#ffd9e5" opacity="0.95"/><circle cx="886" cy="320" r="58" fill="#ffb7cf" opacity="0.85"/><circle cx="1095" cy="292" r="58" fill="#ffc9da" opacity="0.85"/><circle cx="983" cy="207" r="32" fill="#ff9fbf" opacity="0.76"/><circle cx="1109" cy="202" r="29" fill="#ffb7cf" opacity="0.94"/><circle cx="994" cy="189" r="51" fill="#ffd9e5" opacity="0.79"/><circle cx="964" cy="336" r="28" fill="#ff9fbf" opacity="0.91"/><circle cx="1172" cy="326" r="51" fill="#ff9fbf" opacity="0.76"/><circle cx="1108" cy="262" r="56" fill="#ffb7cf" opacity="0.79"/><circle cx="969" cy="259" r="30" fill="#ffb7cf" opacity="0.71"/><circle cx="967" cy="174" r="33" fill="#ff9fbf" opacity="0.81"/><circle cx="971" cy="327" r="53" fill="#ffd9e5" opacity="0.92"/><circle cx="1076" cy="168" r="57" fill="#ffc9da" opacity="0.88"/><circle cx="1161" cy="267" r="42" fill="#ffc9da" opacity="0.86"/><circle cx="1024" cy="257" r="58" fill="#ffc9da" opacity="0.74"/><circle cx="971" cy="263" r="36" fill="#ff9fbf" opacity="0.80"/><circle cx="1037" cy="303" r="49" fill="#ffb7cf" opacity="0.74"/><circle cx="1061" cy="272" r="57" fill="#ffd9e5" opacity="0.84"/><circle cx="957" cy="254" r="52" fill="#ffd9e5" opacity="0.73"/><circle cx="1043" cy="262" r="39" fill="#ffb7cf" opacity="0.78"/><circle cx="925" cy="314" r="34" fill="#ffb7cf" opacity="0.89"/><path d="M330 486.0 Q325.2 402.0 336.0 330 L350.4 330 Q348.0 414.0 356.4 486.0Z" fill="#6b4a4f"/><circle cx="297" cy="342" r="27" fill="#ffd9e5" opacity="0.77"/><circle cx="343" cy="285" r="28" fill="#ff9fbf" opacity="0.73"/><circle cx="270" cy="323" r="33" fill="#ffc9da" opacity="0.72"/><circle cx="382" cy="304" r="29" fill="#ffd9e5" opacity="0.94"/><circle cx="402" cy="269" r="17" fill="#ffb7cf" opacity="0.81"/><circle cx="350" cy="265" r="35" fill="#ffd9e5" opacity="0.70"/><circle cx="251" cy="372" r="33" fill="#ffd9e5" opacity="0.94"/><circle cx="342" cy="340" r="20" fill="#ffb7cf" opacity="0.94"/><circle cx="329" cy="277" r="31" fill="#ffd9e5" opacity="0.72"/><circle cx="342" cy="322" r="19" fill="#ffb7cf" opacity="0.86"/><circle cx="333" cy="340" r="22" fill="#ffd9e5" opacity="0.87"/><circle cx="357" cy="332" r="27" fill="#ffc9da" opacity="0.80"/><circle cx="353" cy="368" r="17" fill="#ff9fbf" opacity="0.95"/><circle cx="334" cy="352" r="33" fill="#ffc9da" opacity="0.82"/><circle cx="346" cy="349" r="35" fill="#ff9fbf" opacity="0.71"/><circle cx="378" cy="388" r="29" fill="#ffb7cf" opacity="0.76"/><circle cx="284" cy="259" r="21" fill="#ffb7cf" opacity="0.87"/><circle cx="332" cy="293" r="24" fill="#ffb7cf" opacity="0.90"/><circle cx="338" cy="285" r="21" fill="#ffc9da" opacity="0.78"/><circle cx="358" cy="302" r="21" fill="#ff9fbf" opacity="0.73"/><circle cx="292" cy="292" r="34" fill="#ffd9e5" opacity="0.80"/><circle cx="279" cy="255" r="20" fill="#ffd9e5" opacity="0.71"/><circle cx="410" cy="331" r="25" fill="#ffb7cf" opacity="0.75"/><circle cx="266" cy="340" r="23" fill="#ffb7cf" opacity="0.95"/><circle cx="383" cy="312" r="20" fill="#ffd9e5" opacity="0.71"/><circle cx="317" cy="296" r="24" fill="#ff9fbf" opacity="0.81"/><path d="M850 501.2 Q845.04 414.4 856.2 340 L871.08 340 Q868.6 426.8 877.28 501.2Z" fill="#6b4a4f"/><circle cx="879" cy="343" r="19" fill="#ffd9e5" opacity="0.94"/><circle cx="959" cy="396" r="21" fill="#ff9fbf" opacity="0.89"/><circle cx="828" cy="391" r="19" fill="#ffd9e5" opacity="0.75"/><circle cx="807" cy="324" r="24" fill="#ffd9e5" opacity="0.71"/><circle cx="781" cy="367" r="33" fill="#ffb7cf" opacity="0.79"/><circle cx="770" cy="348" r="19" fill="#ffc9da" opacity="0.89"/><circle cx="901" cy="315" r="23" fill="#ffb7cf" opacity="0.77"/><circle cx="853" cy="305" r="23" fill="#ffb7cf" opacity="0.88"/><circle cx="784" cy="299" r="36" fill="#ffb7cf" opacity="0.71"/><circle cx="868" cy="372" r="36" fill="#ffd9e5" opacity="0.90"/><circle cx="945" cy="301" r="20" fill="#ffd9e5" opacity="0.75"/><circle cx="890" cy="281" r="34" fill="#ffc9da" opacity="0.85"/><circle cx="841" cy="360" r="25" fill="#ffb7cf" opacity="0.83"/><circle cx="838" cy="346" r="25" fill="#ffb7cf" opacity="0.82"/><circle cx="832" cy="328" r="26" fill="#ffb7cf" opacity="0.95"/><circle cx="860" cy="348" r="19" fill="#ffd9e5" opacity="0.95"/><circle cx="894" cy="330" r="20" fill="#ffd9e5" opacity="0.86"/><circle cx="822" cy="284" r="34" fill="#ffb7cf" opacity="0.89"/><circle cx="851" cy="360" r="23" fill="#ff9fbf" opacity="0.88"/><circle cx="875" cy="358" r="22" fill="#ffc9da" opacity="0.77"/><circle cx="891" cy="322" r="19" fill="#ff9fbf" opacity="0.95"/><circle cx="824" cy="333" r="33" fill="#ffd9e5" opacity="0.95"/><circle cx="910" cy="357" r="34" fill="#ffd9e5" opacity="0.93"/><circle cx="905" cy="341" r="20" fill="#ffc9da" opacity="0.85"/><circle cx="879" cy="314" r="19" fill="#ffc9da" opacity="0.81"/><circle cx="857" cy="393" r="36" fill="#ffb7cf" opacity="0.86"/>
</g>
<g filter="url(#blur)"><circle cx="663" cy="154" r="39" fill="#fff4c2" opacity="0.11"/><circle cx="1097" cy="96" r="37" fill="#fff4c2" opacity="0.11"/><circle cx="1039" cy="219" r="16" fill="#fff" opacity="0.19"/><circle cx="143" cy="246" r="19" fill="#fff4c2" opacity="0.18"/><circle cx="1158" cy="126" r="28" fill="#fff4c2" opacity="0.23"/><circle cx="126" cy="590" r="39" fill="#fff" opacity="0.30"/><circle cx="95" cy="570" r="22" fill="#ffe6f0" opacity="0.18"/><circle cx="1107" cy="120" r="33" fill="#fff4c2" opacity="0.26"/><circle cx="370" cy="105" r="26" fill="#ffe6f0" opacity="0.12"/><circle cx="128" cy="577" r="17" fill="#fff4c2" opacity="0.14"/><circle cx="1088" cy="437" r="34" fill="#ffe6f0" opacity="0.22"/><circle cx="928" cy="370" r="33" fill="#fff" opacity="0.26"/><circle cx="499" cy="83" r="33" fill="#fff4c2" opacity="0.20"/><circle cx="703" cy="459" r="32" fill="#fff4c2" opacity="0.30"/><circle cx="241" cy="524" r="40" fill="#fff" opacity="0.25"/><circle cx="311" cy="500" r="40" fill="#fff" opacity="0.29"/><circle cx="158" cy="571" r="34" fill="#ffe6f0" opacity="0.24"/><circle cx="1017" cy="593" r="43" fill="#fff" opacity="0.27"/><circle cx="552" cy="485" r="18" fill="#fff" opacity="0.25"/><circle cx="634" cy="591" r="42" fill="#ffe6f0" opacity="0.24"/><circle cx="710" cy="23" r="43" fill="#ffe6f0" opacity="0.13"/><circle cx="239" cy="505" r="17" fill="#fff" opacity="0.25"/><circle cx="264" cy="253" r="39" fill="#ffe6f0" opacity="0.28"/><circle cx="1016" cy="82" r="24" fill="#ffe6f0" opacity="0.18"/><circle cx="569" cy="140" r="41" fill="#fff4c2" opacity="0.16"/><circle cx="850" cy="367" r="38" fill="#fff" opacity="0.13"/><circle cx="360" cy="154" r="28" fill="#fff4c2" opacity="0.15"/><circle cx="993" cy="603" r="25" fill="#ffe6f0" opacity="0.16"/><circle cx="298" cy="429" r="48" fill="#ffe6f0" opacity="0.22"/><circle cx="652" cy="128" r="46" fill="#fff4c2" opacity="0.23"/><circle cx="110" cy="467" r="39" fill="#ffe6f0" opacity="0.18"/><circle cx="212" cy="493" r="39" fill="#fff" opacity="0.14"/><circle cx="427" cy="451" r="24" fill="#fff" opacity="0.17"/><circle cx="107" cy="104" r="14" fill="#fff4c2" opacity="0.13"/></g>
<!-- back hair -->
<path d="M404 300 C392 170 450 112 505 112 C572 112 616 175 598 300 C616 410 610 540 590 660 C560 690 440 690 412 660 C392 540 392 410 404 300Z" fill="url(#hair)" stroke="#3a2233" stroke-width="2.5"/>
<!-- left arm -->
<path d="M372 555 Q358 650 384 742 L428 742 Q432 650 432 570Z" fill="url(#skin)" stroke="#3a2233" stroke-width="2.5"/>
<!-- neck -->
<path d="M480 372 L520 372 L526 450 L474 450Z" fill="url(#skin)" stroke="#3a2233" stroke-width="2.5"/>
<path d="M480 372 L520 372 L520 404 Q500 420 480 404Z" fill="#e9a98f" opacity=".6"/>
<!-- torso -->
<path d="M388 800 L394 478 Q404 440 452 428 L548 428 Q596 440 606 478 L612 800Z" fill="#fff" stroke="#3a2233" stroke-width="2.5"/>
<path d="M388 800 L394 478 Q404 440 430 432 L440 800Z" fill="#dfe8f6" opacity=".7"/>
<path d="M400 458 Q364 480 368 566 L434 574 Q446 500 442 452Z" fill="#fff" stroke="#3a2233" stroke-width="2.5"/>
<!-- collar and bow -->
<path d="M444 430 Q500 478 556 430 L590 462 Q500 556 410 462Z" fill="#5fb4ec" stroke="#3a2233" stroke-width="2.5"/>
<path d="M432 452 Q500 520 568 452 M424 464 Q500 534 576 464" stroke="#fff" stroke-width="4" fill="none"/>
<path d="M500 498 L452 474 Q440 506 456 530Z M500 498 L548 474 Q560 506 544 530Z" fill="#ff6f91" stroke="#3a2233" stroke-width="2.5"/>
<circle cx="500" cy="499" r="12" fill="#ff4d79" stroke="#3a2233" stroke-width="2.5"/>
<path d="M494 510 L482 570 L500 556 L512 572 L506 510Z" fill="#ff6f91" stroke="#3a2233" stroke-width="2.5"/>
<!-- side locks (front) -->
<path d="M424 292 C404 380 400 500 418 628 C446 520 452 400 448 300Z" fill="url(#hair)" stroke="#3a2233" stroke-width="2.5"/>
<path d="M576 292 C596 380 600 500 582 628 C554 520 548 400 552 300Z" fill="url(#hair)" stroke="#3a2233" stroke-width="2.5"/>
<!-- face -->
<path d="M424 272 C424 205 466 172 500 172 C536 172 576 205 576 272 C576 334 546 392 500 400 C454 392 424 334 424 272Z" fill="url(#skin)" stroke="#3a2233" stroke-width="2.5"/>
<ellipse cx="447" cy="333" rx="16" ry="9" fill="#ff8fa3" opacity=".55"/><ellipse cx="553" cy="333" rx="16" ry="9" fill="#ff8fa3" opacity=".55"/>
<path d="M438 329 l5 8 M446 329 l5 8 M454 329 l5 8 M546 329 l5 8 M554 329 l5 8 M562 329 l5 8" stroke="#ff6f8a" stroke-width="1.6" opacity=".7"/>

<ellipse cx="463" cy="292" rx="22" ry="26" fill="#fff"/>
<ellipse cx="464" cy="294" rx="17" ry="23" fill="url(#iris)"/>
<ellipse cx="464" cy="295" rx="8" ry="12" fill="#0b1a2b"/>
<path d="M445 276 Q463 266 481 276 Q463 282 445 276Z" fill="#0b1a2b" opacity=".35"/>
<circle cx="457" cy="283" r="7" fill="#fff"/><circle cx="470" cy="305" r="3.5" fill="#fff"/><circle cx="473" cy="298" r="1.8" fill="#c8f4ff"/>
<path d="M439 284 Q453 262 485 275" stroke="#241224" stroke-width="5.5" fill="none" stroke-linecap="round"/>
<path d="M443 306 Q463 322 483 306" stroke="#8a5a6a" stroke-width="1.8" fill="none" opacity=".6"/>
<path d="M441 282 l-8 -6 M444 277 l-7 -9" stroke="#241224" stroke-width="3" stroke-linecap="round"/>
<ellipse cx="537" cy="292" rx="22" ry="26" fill="#fff"/>
<ellipse cx="536" cy="294" rx="17" ry="23" fill="url(#iris)"/>
<ellipse cx="536" cy="295" rx="8" ry="12" fill="#0b1a2b"/>
<path d="M555 276 Q537 266 519 276 Q537 282 555 276Z" fill="#0b1a2b" opacity=".35"/>
<circle cx="543" cy="283" r="7" fill="#fff"/><circle cx="530" cy="305" r="3.5" fill="#fff"/><circle cx="527" cy="298" r="1.8" fill="#c8f4ff"/>
<path d="M561 284 Q547 262 515 275" stroke="#241224" stroke-width="5.5" fill="none" stroke-linecap="round"/>
<path d="M557 306 Q537 322 517 306" stroke="#8a5a6a" stroke-width="1.8" fill="none" opacity=".6"/>
<path d="M559 282 l8 -6 M556 277 l7 -9" stroke="#241224" stroke-width="3" stroke-linecap="round"/>
<path d="M441 251 Q462 238 484 247 M559 251 Q538 238 516 247" stroke="#3a2547" stroke-width="3.5" fill="none" stroke-linecap="round"/>
<path d="M497 326 q3 4 7 0" stroke="#c98a7a" stroke-width="2" fill="none" stroke-linecap="round"/>
<path d="M482 347 Q500 372 518 347 Q500 354 482 347Z" fill="#b3394f" stroke="#3a2233" stroke-width="2"/>
<path d="M492 358 Q500 366 508 358 Q500 352 492 358Z" fill="#ff8fa3"/>
<!-- bangs -->
<path d="M414 290 C410 190 452 140 508 140 C566 140 594 190 588 290 C580 240 562 214 540 206 C538 244 522 276 504 290 C500 250 482 226 456 224 C438 238 424 262 414 290Z" fill="url(#hair)" stroke="#3a2233" stroke-width="2.5"/>
<path d="M444 200 Q470 156 520 160 M470 190 Q496 166 540 176" stroke="#b27aa8" stroke-width="5" fill="none" stroke-linecap="round" opacity=".6"/>
<path d="M504 140 Q490 96 520 80 Q512 108 524 138Z" fill="url(#hair)" stroke="#3a2233" stroke-width="2"/>
<g stroke="#3a2233" stroke-width="2"><circle cx="566" cy="188" r="11" fill="#e63950"/><circle cx="590" cy="200" r="11" fill="#e63950"/></g>
<path d="M566 177 Q576 150 598 144" stroke="#2f8f4a" stroke-width="3" fill="none"/><circle cx="563" cy="184" r="3" fill="#fff" opacity=".8"/><circle cx="587" cy="196" r="3" fill="#fff" opacity=".8"/>
<!-- right arm -->
<path d="M612 505 L668 562" stroke="#3a2233" stroke-width="32" stroke-linecap="round"/><path d="M668 562 L732 396" stroke="#3a2233" stroke-width="30" stroke-linecap="round"/>
<path d="M612 505 L668 562" stroke="url(#skin)" stroke-width="28" stroke-linecap="round"/><path d="M668 562 L732 396" stroke="url(#skin)" stroke-width="26" stroke-linecap="round"/>
<path d="M556 470 Q570 428 610 438 Q652 450 650 500 Q640 540 596 534 Q560 520 556 470Z" fill="#fff" stroke="#3a2233" stroke-width="2.5"/>
<!-- cone -->
<path d="M698 268 L772 268 L735 432Z" fill="url(#cone)" stroke="#3a2233" stroke-width="2.5"/>
<rect x="690" y="260" width="90" height="180" fill="url(#waffle)" clip-path="url(#coneClip)"/>
<!-- hand -->
<g stroke="#3a2233" stroke-width="2.2" fill="url(#skin)">
<ellipse cx="736" cy="380" rx="25" ry="30"/>
<rect x="712" y="352" width="48" height="16" rx="8"/><rect x="712" y="369" width="48" height="16" rx="8"/><rect x="714" y="386" width="46" height="16" rx="8"/>
<ellipse cx="708" cy="362" rx="9" ry="18" transform="rotate(-20 708 362)"/></g>
<!-- scoops -->
<path d="M680 266 C680 226 706 212 736 212 C768 212 792 228 790 266 Q790 304 774 296 Q766 326 752 296 Q736 316 722 296 Q706 322 698 292 Q680 298 680 266Z" fill="url(#pink)" stroke="#3a2233" stroke-width="2.5"/>
<circle cx="736" cy="196" r="44" fill="url(#mint)" stroke="#3a2233" stroke-width="2.5"/>
<g fill="#5b3a29"><ellipse cx="716" cy="190" rx="5" ry="3" transform="rotate(30 716 190)"/><ellipse cx="748" cy="176" rx="5" ry="3" transform="rotate(-20 748 176)"/><ellipse cx="756" cy="206" rx="5" ry="3" transform="rotate(60 756 206)"/><ellipse cx="730" cy="214" rx="5" ry="3"/></g>
<rect x="-6" y="-1.8" width="12" height="3.6" rx="1.8" fill="#80ed99" transform="translate(758 266) rotate(180)"/><rect x="-6" y="-1.8" width="12" height="3.6" rx="1.8" fill="#fff" transform="translate(749 259) rotate(132)"/><rect x="-6" y="-1.8" width="12" height="3.6" rx="1.8" fill="#80ed99" transform="translate(737 270) rotate(16)"/><rect x="-6" y="-1.8" width="12" height="3.6" rx="1.8" fill="#fff" transform="translate(729 244) rotate(21)"/><rect x="-6" y="-1.8" width="12" height="3.6" rx="1.8" fill="#4cc9f0" transform="translate(734 240) rotate(46)"/><rect x="-6" y="-1.8" width="12" height="3.6" rx="1.8" fill="#4cc9f0" transform="translate(716 265) rotate(173)"/><rect x="-6" y="-1.8" width="12" height="3.6" rx="1.8" fill="#4cc9f0" transform="translate(751 247) rotate(137)"/><rect x="-6" y="-1.8" width="12" height="3.6" rx="1.8" fill="#80ed99" transform="translate(763 282) rotate(83)"/><rect x="-6" y="-1.8" width="12" height="3.6" rx="1.8" fill="#fff" transform="translate(735 241) rotate(176)"/><rect x="-6" y="-1.8" width="12" height="3.6" rx="1.8" fill="#ffd23f" transform="translate(754 242) rotate(68)"/><rect x="-6" y="-1.8" width="12" height="3.6" rx="1.8" fill="#fff" transform="translate(711 254) rotate(21)"/><rect x="-6" y="-1.8" width="12" height="3.6" rx="1.8" fill="#80ed99" transform="translate(728 242) rotate(67)"/><rect x="-6" y="-1.8" width="12" height="3.6" rx="1.8" fill="#fff" transform="translate(758 238) rotate(86)"/><rect x="-6" y="-1.8" width="12" height="3.6" rx="1.8" fill="#80ed99" transform="translate(753 255) rotate(159)"/><rect x="-6" y="-1.8" width="12" height="3.6" rx="1.8" fill="#ffd23f" transform="translate(705 271) rotate(61)"/><rect x="-6" y="-1.8" width="12" height="3.6" rx="1.8" fill="#fff" transform="translate(720 254) rotate(12)"/>
<ellipse cx="716" cy="176" rx="12" ry="7" fill="#fff" opacity=".65" transform="rotate(-35 716 176)"/><ellipse cx="702" cy="240" rx="10" ry="6" fill="#fff" opacity=".55" transform="rotate(-35 702 240)"/>
<circle cx="738" cy="150" r="15" fill="#e11d48" stroke="#3a2233" stroke-width="2.2"/><circle cx="733" cy="145" r="4" fill="#fff" opacity=".85"/>
<path d="M738 136 Q744 116 764 110" stroke="#2f8f4a" stroke-width="3.5" fill="none" stroke-linecap="round"/>
<!-- extras -->
<path d="M668 187 Q668 200 681 200 Q668 200 668 213 Q668 200 655 200 Q668 200 668 187Z" fill="#fff7b0"/><path d="M800 114 Q800 130 816 130 Q800 130 800 146 Q800 130 784 130 Q800 130 800 114Z" fill="#fff"/><path d="M820 240 Q820 250 830 250 Q820 250 820 260 Q820 250 810 250 Q820 250 820 240Z" fill="#fff7b0"/><path d="M330 188 Q330 200 342 200 Q330 200 330 212 Q330 200 318 200 Q330 200 330 188Z" fill="#fff"/><path d="M300 411 Q300 420 309 420 Q300 420 300 429 Q300 420 291 420 Q300 420 300 411Z" fill="#fff7b0"/>
<g><ellipse cx="0" cy="0" rx="9" ry="5" fill="#ffc2d6" transform="translate(754 638) rotate(6) scale(0.65)" opacity=".9"/><ellipse cx="0" cy="0" rx="9" ry="5" fill="#ffc2d6" transform="translate(780 162) rotate(162) scale(0.78)" opacity=".9"/><ellipse cx="0" cy="0" rx="9" ry="5" fill="#ffb0ca" transform="translate(755 495) rotate(31) scale(0.68)" opacity=".9"/><ellipse cx="0" cy="0" rx="9" ry="5" fill="#ffb0ca" transform="translate(964 501) rotate(123) scale(0.82)" opacity=".9"/><ellipse cx="0" cy="0" rx="9" ry="5" fill="#ffc2d6" transform="translate(219 777) rotate(87) scale(1.12)" opacity=".9"/><ellipse cx="0" cy="0" rx="9" ry="5" fill="#ffb0ca" transform="translate(340 538) rotate(5) scale(0.74)" opacity=".9"/><ellipse cx="0" cy="0" rx="9" ry="5" fill="#fff0f5" transform="translate(750 160) rotate(176) scale(0.98)" opacity=".9"/><ellipse cx="0" cy="0" rx="9" ry="5" fill="#ffc2d6" transform="translate(1091 315) rotate(164) scale(1.20)" opacity=".9"/><ellipse cx="0" cy="0" rx="9" ry="5" fill="#fff0f5" transform="translate(544 540) rotate(93) scale(1.24)" opacity=".9"/><ellipse cx="0" cy="0" rx="9" ry="5" fill="#ffb0ca" transform="translate(466 555) rotate(138) scale(1.15)" opacity=".9"/><ellipse cx="0" cy="0" rx="9" ry="5" fill="#ffb0ca" transform="translate(466 637) rotate(49) scale(1.16)" opacity=".9"/><ellipse cx="0" cy="0" rx="9" ry="5" fill="#ffb0ca" transform="translate(474 214) rotate(132) scale(0.94)" opacity=".9"/><ellipse cx="0" cy="0" rx="9" ry="5" fill="#fff0f5" transform="translate(69 38) rotate(71) scale(0.93)" opacity=".9"/><ellipse cx="0" cy="0" rx="9" ry="5" fill="#ffc2d6" transform="translate(715 467) rotate(89) scale(1.27)" opacity=".9"/><ellipse cx="0" cy="0" rx="9" ry="5" fill="#ffb0ca" transform="translate(174 235) rotate(26) scale(0.76)" opacity=".9"/><ellipse cx="0" cy="0" rx="9" ry="5" fill="#ffc2d6" transform="translate(701 219) rotate(123) scale(1.04)" opacity=".9"/><ellipse cx="0" cy="0" rx="9" ry="5" fill="#fff0f5" transform="translate(13 500) rotate(167) scale(0.84)" opacity=".9"/><ellipse cx="0" cy="0" rx="9" ry="5" fill="#fff0f5" transform="translate(183 686) rotate(30) scale(1.24)" opacity=".9"/><ellipse cx="0" cy="0" rx="9" ry="5" fill="#fff0f5" transform="translate(418 499) rotate(45) scale(0.90)" opacity=".9"/><ellipse cx="0" cy="0" rx="9" ry="5" fill="#fff0f5" transform="translate(690 98) rotate(101) scale(0.92)" opacity=".9"/><ellipse cx="0" cy="0" rx="9" ry="5" fill="#fff0f5" transform="translate(183 752) rotate(40) scale(0.72)" opacity=".9"/><ellipse cx="0" cy="0" rx="9" ry="5" fill="#ffc2d6" transform="translate(66 164) rotate(151) scale(1.23)" opacity=".9"/><ellipse cx="0" cy="0" rx="9" ry="5" fill="#fff0f5" transform="translate(309 636) rotate(152) scale(1.29)" opacity=".9"/><ellipse cx="0" cy="0" rx="9" ry="5" fill="#fff0f5" transform="translate(727 169) rotate(140) scale(0.98)" opacity=".9"/><ellipse cx="0" cy="0" rx="9" ry="5" fill="#ffc2d6" transform="translate(39 753) rotate(166) scale(0.67)" opacity=".9"/><ellipse cx="0" cy="0" rx="9" ry="5" fill="#fff0f5" transform="translate(295 454) rotate(49) scale(1.18)" opacity=".9"/><ellipse cx="0" cy="0" rx="9" ry="5" fill="#ffc2d6" transform="translate(67 267) rotate(54) scale(0.81)" opacity=".9"/><ellipse cx="0" cy="0" rx="9" ry="5" fill="#ffc2d6" transform="translate(677 275) rotate(139) scale(0.89)" opacity=".9"/><ellipse cx="0" cy="0" rx="9" ry="5" fill="#ffc2d6" transform="translate(134 767) rotate(90) scale(1.23)" opacity=".9"/><ellipse cx="0" cy="0" rx="9" ry="5" fill="#fff0f5" transform="translate(1068 440) rotate(128) scale(0.69)" opacity=".9"/><ellipse cx="0" cy="0" rx="9" ry="5" fill="#ffc2d6" transform="translate(1082 532) rotate(4) scale(1.21)" opacity=".9"/><ellipse cx="0" cy="0" rx="9" ry="5" fill="#ffc2d6" transform="translate(18 163) rotate(44) scale(0.70)" opacity=".9"/><ellipse cx="0" cy="0" rx="9" ry="5" fill="#fff0f5" transform="translate(256 579) rotate(15) scale(0.83)" opacity=".9"/><ellipse cx="0" cy="0" rx="9" ry="5" fill="#fff0f5" transform="translate(1096 578) rotate(123) scale(1.15)" opacity=".9"/><ellipse cx="0" cy="0" rx="9" ry="5" fill="#ffc2d6" transform="translate(1157 68) rotate(63) scale(0.73)" opacity=".9"/><ellipse cx="0" cy="0" rx="9" ry="5" fill="#ffc2d6" transform="translate(210 529) rotate(115) scale(0.99)" opacity=".9"/><ellipse cx="0" cy="0" rx="9" ry="5" fill="#ffc2d6" transform="translate(917 343) rotate(156) scale(1.28)" opacity=".9"/><ellipse cx="0" cy="0" rx="9" ry="5" fill="#fff0f5" transform="translate(1058 214) rotate(177) scale(0.79)" opacity=".9"/><ellipse cx="0" cy="0" rx="9" ry="5" fill="#fff0f5" transform="translate(1102 499) rotate(129) scale(1.26)" opacity=".9"/><ellipse cx="0" cy="0" rx="9" ry="5" fill="#fff0f5" transform="translate(1081 275) rotate(143) scale(1.22)" opacity=".9"/><ellipse cx="0" cy="0" rx="9" ry="5" fill="#ffc2d6" transform="translate(926 150) rotate(106) scale(0.69)" opacity=".9"/><ellipse cx="0" cy="0" rx="9" ry="5" fill="#ffb0ca" transform="translate(657 84) rotate(171) scale(0.77)" opacity=".9"/><ellipse cx="0" cy="0" rx="9" ry="5" fill="#ffc2d6" transform="translate(445 695) rotate(77) scale(1.15)" opacity=".9"/><ellipse cx="0" cy="0" rx="9" ry="5" fill="#ffc2d6" transform="translate(759 156) rotate(64) scale(1.22)" opacity=".9"/><ellipse cx="0" cy="0" rx="9" ry="5" fill="#ffb0ca" transform="translate(459 774) rotate(24) scale(0.88)" opacity=".9"/><ellipse cx="0" cy="0" rx="9" ry="5" fill="#ffb0ca" transform="translate(343 693) rotate(57) scale(0.71)" opacity=".9"/><ellipse cx="0" cy="0" rx="9" ry="5" fill="#ffb0ca" transform="translate(1065 423) rotate(86) scale(0.89)" opacity=".9"/><ellipse cx="0" cy="0" rx="9" ry="5" fill="#ffb0ca" transform="translate(662 104) rotate(93) scale(0.61)" opacity=".9"/></g>
<rect width="1200" height="800" fill="url(#haze)"/>
</svg>